<svg width="600" height="600" viewBox="0 0 600 600" fill="none" xmlns="http://www.w3.org/2000/svg">
<path d="M294.285 266.002C282.41 266.058 271.069 267.07 261.09 268.834C231.694 274.024 226.357 284.888 226.357 304.922V331.38H295.823V340.2H226.357H200.287C180.098 340.2 162.42 352.327 156.89 375.397C150.512 401.841 150.229 418.342 156.89 445.953C161.828 466.506 173.621 481.15 193.81 481.15H217.694V449.432C217.694 426.518 237.532 406.306 261.09 406.306H330.476C349.79 406.306 365.209 390.413 365.209 371.028V304.922C365.209 286.107 349.327 271.974 330.476 268.834C318.542 266.849 306.161 265.947 294.285 266.002ZM256.718 287.283C263.894 287.283 269.753 293.234 269.753 300.552C269.753 307.844 263.894 313.741 256.718 313.741C249.517 313.741 243.683 307.844 243.683 300.552C243.683 293.234 249.517 287.283 256.718 287.283Z" fill="#009ACD"/>
<path fill-rule="evenodd" clip-rule="evenodd" d="M330.476 268.834C349.327 271.974 365.209 286.107 365.209 304.922V371.028C365.209 390.413 349.79 406.306 330.476 406.306H261.09C237.532 406.306 217.694 426.518 217.694 449.433V481.15H193.81C173.621 481.15 161.828 466.506 156.89 445.953C150.229 418.342 150.512 401.841 156.89 375.397C162.42 352.327 180.098 340.2 200.287 340.2H295.823V331.38H226.357V304.922C226.357 284.888 231.694 274.024 261.09 268.834C271.069 267.07 282.41 266.058 294.285 266.002C306.161 265.947 318.542 266.849 330.476 268.834ZM259.854 261.843C244.673 264.523 233.944 268.917 227.299 276.702C220.569 284.589 219.257 294.527 219.257 304.922V333.1H200.287C176.919 333.1 156.307 347.377 149.987 373.738C146.725 387.262 144.938 398.584 144.901 410.214C144.863 421.847 146.575 433.469 149.987 447.612M259.856 261.842C270.265 260.002 282.01 258.959 294.252 258.902C306.496 258.846 319.281 259.774 331.641 261.831L331.642 261.831C352.807 265.356 372.309 281.62 372.309 304.922V371.028C372.309 394.199 353.845 413.406 330.476 413.406H261.09C241.464 413.406 224.794 430.428 224.794 449.433V488.25H193.81C181.801 488.25 171.976 483.817 164.553 476.222C157.29 468.79 152.646 458.679 149.987 447.614M262.653 300.552C262.653 297.04 259.858 294.383 256.718 294.383C253.561 294.383 250.783 297.031 250.783 300.552C250.783 304 253.514 306.641 256.718 306.641C259.905 306.641 262.653 303.991 262.653 300.552ZM269.753 300.552C269.753 293.234 263.894 287.283 256.718 287.283C249.517 287.283 243.683 293.234 243.683 300.552C243.683 307.844 249.517 313.741 256.718 313.741C263.894 313.741 269.753 307.844 269.753 300.552Z" fill="#3E3E3E"/>
<path d="M373.872 340.2V371.028C373.872 394.928 353.597 415.044 330.476 415.044H261.09C242.084 415.044 226.357 431.301 226.357 450.323V516.429C226.357 535.243 242.727 546.309 261.09 551.707C283.079 558.168 304.166 559.336 330.476 551.707C347.964 546.646 365.209 536.462 365.209 516.429V489.97H295.823V481.15H365.209H399.942C420.131 481.15 427.655 467.077 434.676 445.953C441.928 424.207 441.62 403.294 434.676 375.397C429.686 355.311 420.157 340.2 399.942 340.2H373.872ZM334.848 507.609C342.049 507.609 347.883 513.506 347.883 520.798C347.883 528.116 342.049 534.068 334.848 534.068C327.672 534.068 321.813 528.116 321.813 520.798C321.813 513.506 327.672 507.609 334.848 507.609Z" fill="white"/>
<path fill-rule="evenodd" clip-rule="evenodd" d="M366.872 333.2H399.942C412.075 333.2 421.421 337.854 428.274 345.642C434.877 353.147 438.858 363.198 441.469 373.709C448.626 402.463 449.11 424.795 441.318 448.161C437.798 458.753 433.817 468.735 427.56 476.03C420.903 483.793 412.008 488.15 399.942 488.15H372.209V516.429C372.209 528.763 366.786 538.15 359.009 544.952C351.434 551.577 341.663 555.757 332.425 558.43C304.732 566.46 282.28 565.23 259.117 558.423C240.179 552.856 219.357 540.285 219.357 516.429V450.323C219.357 427.574 238.08 408.044 261.09 408.044H330.476C349.683 408.044 366.872 391.11 366.872 371.028V333.2ZM330.476 551.707C347.964 546.646 365.209 536.462 365.209 516.429V489.97H295.823V481.15H399.942C420.131 481.15 427.655 467.077 434.676 445.953C441.928 424.207 441.62 403.294 434.676 375.397C429.686 355.311 420.157 340.2 399.942 340.2H373.872V371.028C373.872 394.928 353.597 415.044 330.476 415.044H261.09C242.084 415.044 226.357 431.301 226.357 450.323V516.429C226.357 535.243 242.727 546.309 261.09 551.707C283.079 558.168 304.166 559.336 330.476 551.707ZM340.883 520.798C340.883 517.296 338.108 514.609 334.848 514.609C331.605 514.609 328.813 517.305 328.813 520.798C328.813 524.364 331.651 527.068 334.848 527.068C338.061 527.068 340.883 524.373 340.883 520.798ZM347.883 520.798C347.883 513.506 342.049 507.609 334.848 507.609C327.672 507.609 321.813 513.506 321.813 520.798C321.813 528.116 327.672 534.068 334.848 534.068C342.049 534.068 347.883 528.116 347.883 520.798Z" fill="#3E3E3E"/>
<path d="M254.494 79.8258C255.311 54.6598 255.918 52.2658 263.076 45.9808C269.406 40.4228 274.285 42.5048 279.531 53.0038C281.779 57.5018 282.6 60.5408 282.6 64.3608C282.6 70.8818 283.554 75.8258 284.812 75.8258C285.34 75.8258 288.613 73.0988 292.084 69.7658L298.394 63.7068L309.85 75.0568C316.15 81.2988 321.821 87.3708 322.453 88.5508C323.084 89.7298 323.6 94.3238 323.6 98.7598C323.6 103.196 324.018 106.826 324.529 106.826C325.04 106.826 327.065 108.342 329.029 110.194L332.6 113.562L332.615 125.944C332.624 132.754 332.963 138.848 333.368 139.485C333.774 140.123 336.023 141.411 338.366 142.349C343.682 144.476 346.16 147.905 349.033 157.106L350.288 172.737C349.426 173.598 349.1 181.799 349.1 202.611V231.299L355.6 232.406C359.175 233.015 366.375 234.063 371.6 234.734C383.248 236.229 387.6 237.521 387.6 239.48C387.6 241.1 384.142 244.678 378.284 249.119L374.6 251.911V263.072V274.232L370.6 270.326L366.6 266.42V258.4V250.381L370.85 246.705C373.187 244.683 374.771 242.692 374.37 242.281C373.968 241.869 366.589 240.482 357.972 239.198C349.355 237.914 342.203 236.743 342.078 236.595C341.953 236.447 342.209 219.451 342.647 198.826C343.48 159.568 343.141 154.552 339.419 151.138C338.333 150.141 335.117 148.201 332.272 146.826L327.1 144.326L326.6 129.826L326.1 115.326L321.978 113.462L317.856 111.598L317.376 101.616L316.895 91.6348L307.818 82.5578L298.741 73.4808L295.421 76.0478C293.594 77.4598 289.316 81.2498 285.914 84.4708C279.798 90.2598 279.719 90.4048 278.9 97.3258C278.139 103.751 277.967 102.554 276.809 82.7718C275.404 58.7788 274.747 55.2528 271.035 51.7648L268.466 49.3518L266.487 51.8388C261.292 58.3648 261.572 56.0428 260.494 101.468L259.477 144.326L256.641 146.826C255.081 148.201 252.539 151.291 250.992 153.694L248.178 158.062L248.475 198.697L248.773 239.332L240.436 243.507C235.851 245.803 229.625 248.467 226.6 249.427C223.575 250.387 220.853 251.538 220.55 251.984C220.248 252.431 220.372 256.662 220.825 261.387C221.602 269.478 221.517 270.141 219.375 272.768C218.124 274.303 216.564 276.406 215.909 277.442C214.928 278.993 214.677 277.734 214.488 270.326C214.175 258.069 214.205 258.326 212.719 255.548C211.54 253.346 211.686 252.653 214.091 249.019C216.38 245.56 217.551 244.788 221.932 243.848C229.752 242.171 241.534 235.939 242.245 233.103C242.935 230.357 242.381 182.027 241.669 172.094C241.617 172.772 241.545 172.42 241.435 170.327C241.514 170.405 241.592 171.029 241.669 172.094C241.825 170.043 241.799 158.566 242.07 157.326C242.768 154.134 246.263 148.43 250.821 143.041L253.6 139.756L253.682 121.041C253.726 110.748 254.092 92.2008 254.494 79.8258Z" fill="#FFFFFF"/>
<path fill-rule="evenodd" clip-rule="evenodd" d="M241.951 166.544C145.821 192.142 75 279.793 75 383.985C75 448.552 102.197 506.767 145.76 547.799C167.746 542.832 190.686 538.825 214.392 535.879C213.598 534.123 212.909 532.294 212.33 530.391L211.652 528.161C189.816 530.926 168.62 534.583 148.207 539.059C107.96 499.658 83 444.742 83 383.985C83 284.233 150.306 200.202 241.981 174.828C241.966 172.002 241.954 169.127 241.951 166.544ZM349.082 172.559C445.287 194.803 517 281.019 517 383.985C517 442.842 493.578 496.215 455.527 535.314C431.872 530.794 407.264 527.353 381.912 525.101C381.909 525.274 381.907 525.442 381.904 525.603L381.902 525.717C381.889 526.515 381.863 528.065 381.726 529.205C381.572 530.492 381.327 531.78 381.007 533.052C407.662 535.413 433.474 539.1 458.196 543.982C499.443 503.196 525 446.575 525 383.985C525 276.569 449.729 186.734 349.056 164.348L349.082 172.559Z" fill="#FFFFFF"/>
</svg>
